<svg width="47" height="47" viewBox="0 0 47 47" fill="none" xmlns="http://www.w3.org/2000/svg">
<path d="M17.4825 27.2541H3.74808C3.32007 27.2559 2.9101 27.4267 2.60745 27.7293C2.3048 28.032 2.13401 28.4419 2.13226 28.8699V42.611C2.13226 43.505 2.85739 44.2268 3.74808 44.2268H17.4891C18.3831 44.2268 19.1049 43.5017 19.1049 42.611V28.8699C19.1032 28.4419 18.9324 28.032 18.6298 27.7293C18.3271 27.4267 17.9171 27.2559 17.4891 27.2541H17.4825ZM42.6104 27.2541H28.8694C28.4414 27.2559 28.0314 27.4267 27.7287 27.7293C27.4261 28.032 27.2553 28.4419 27.2536 28.8699V42.611C27.2536 43.505 27.9754 44.2268 28.8694 44.2268H42.6104C43.5044 44.2268 44.2262 43.5017 44.2262 42.611V28.8699C44.2245 28.4419 44.0537 28.032 43.7511 27.7293C43.4484 27.4267 43.0384 27.2559 42.6104 27.2541ZM17.4825 2.12953H3.74808C3.32007 2.13128 2.9101 2.30207 2.60745 2.60472C2.3048 2.90737 2.13401 3.31734 2.13226 3.74535V17.4864C2.13226 18.3804 2.85739 19.1022 3.74808 19.1022H17.4891C18.3831 19.1022 19.1049 18.3771 19.1049 17.4864V3.74204C19.1032 3.31403 18.9324 2.90406 18.6298 2.60141C18.3271 2.29876 17.9171 2.12796 17.4891 2.12622L17.4825 2.12953ZM26.9721 11.8675C25.9755 11.6953 25.9755 10.2682 26.9721 10.0927C28.7345 9.78621 30.3657 8.96181 31.6577 7.72462C32.9498 6.48742 33.8441 4.89349 34.2267 3.14604L34.2863 2.87122C34.5015 1.88782 35.9021 1.87789 36.1273 2.86128L36.2001 3.18246C36.5971 4.92244 37.4994 6.50632 38.7937 7.73517C40.0879 8.96403 41.7164 9.78306 43.4746 10.0894C44.4746 10.2616 44.4746 11.6986 43.4746 11.8741C41.7164 12.1804 40.0879 12.9995 38.7937 14.2283C37.4994 15.4572 36.5971 17.0411 36.2001 18.781L36.1273 19.0989C35.9021 20.0823 34.5049 20.0757 34.2863 19.0923L34.2267 18.8175C33.8447 17.0694 32.9506 15.4747 31.6585 14.2369C30.3665 12.9991 28.7349 12.1742 26.9721 11.8675Z" stroke="black" stroke-width="3.3111" stroke-linecap="round" stroke-linejoin="round"/>
</svg>
