<svg width="22" height="23" viewBox="0 0 22 23" fill="none" xmlns="http://www.w3.org/2000/svg">
<path d="M2.52051 3.47913L4.42717 3.80913L5.30992 14.326C5.34383 14.7399 5.53253 15.1257 5.83837 15.4066C6.14421 15.6875 6.54469 15.8427 6.95992 15.8413H16.9608C17.3583 15.8417 17.7427 15.6986 18.0432 15.4382C18.3436 15.1778 18.54 14.8177 18.5961 14.4241L19.4669 8.41263C19.4901 8.25275 19.4816 8.08987 19.4418 7.93329C19.402 7.77671 19.3318 7.62951 19.2351 7.50011C19.1384 7.3707 19.0171 7.26163 18.8782 7.17913C18.7393 7.09663 18.5855 7.04231 18.4256 7.01929C18.3669 7.01288 4.73334 7.00829 4.73334 7.00829" stroke="#272343" stroke-width="1.5" stroke-linecap="round" stroke-linejoin="round"/>
<path d="M12.9473 10.3954H15.4892" stroke="#272343" stroke-width="1.5" stroke-linecap="round" stroke-linejoin="round"/>
<path fill-rule="evenodd" clip-rule="evenodd" d="M6.55737 19.0194C6.62459 19.0165 6.6917 19.0272 6.75466 19.051C6.81762 19.0747 6.87513 19.111 6.92371 19.1575C6.9723 19.204 7.01097 19.2599 7.03738 19.3218C7.06379 19.3837 7.07741 19.4503 7.07741 19.5176C7.07741 19.5849 7.06379 19.6515 7.03738 19.7133C7.01097 19.7752 6.9723 19.8311 6.92371 19.8777C6.87513 19.9242 6.81762 19.9605 6.75466 19.9842C6.6917 20.0079 6.62459 20.0187 6.55737 20.0158C6.42893 20.0103 6.30759 19.9554 6.21866 19.8626C6.12972 19.7697 6.08008 19.6461 6.08008 19.5176C6.08008 19.389 6.12972 19.2654 6.21866 19.1726C6.30759 19.0798 6.42893 19.0249 6.55737 19.0194Z" fill="#272343" stroke="#272343" stroke-width="1.5" stroke-linecap="round" stroke-linejoin="round"/>
<path fill-rule="evenodd" clip-rule="evenodd" d="M16.898 19.0194C17.0305 19.0194 17.1576 19.072 17.2513 19.1657C17.345 19.2594 17.3976 19.3865 17.3976 19.519C17.3976 19.6515 17.345 19.7786 17.2513 19.8723C17.1576 19.9659 17.0305 20.0186 16.898 20.0186C16.7655 20.0186 16.6385 19.9659 16.5448 19.8723C16.4511 19.7786 16.3984 19.6515 16.3984 19.519C16.3984 19.3865 16.4511 19.2594 16.5448 19.1657C16.6385 19.072 16.7655 19.0194 16.898 19.0194Z" fill="#272343" stroke="#272343" stroke-width="1.5" stroke-linecap="round" stroke-linejoin="round"/>
</svg>
