<svg width="109" height="109" viewBox="0 0 109 109" fill="none" xmlns="http://www.w3.org/2000/svg">
<path d="M22.8836 94.9047C41.8174 73.5378 63.0944 45.1999 94.8413 66.4499M76.8518 20.6983C79.06 18.4227 84.9471 9.45496 88.0952 9.45496M88.0952 9.45496C91.2434 9.45496 97.1304 18.4227 99.3386 20.6983M88.0952 9.45496V45.4338" stroke="black" stroke-width="6.74603" stroke-linecap="round" stroke-linejoin="round"/>
<path d="M94.8412 58.9259C94.8322 77.5765 94.6029 87.1243 88.5854 93.1463C82.3251 99.4021 72.26 99.4021 52.1164 99.4021C31.9772 99.4021 21.9031 99.4021 15.6473 93.1463C9.39151 86.8905 9.39151 76.8209 9.39151 56.6773C9.39151 36.5381 9.39151 26.464 15.6473 20.2082C21.9031 13.9524 31.9727 13.9524 52.1164 13.9524H63.3598" stroke="black" stroke-width="6.74603" stroke-linecap="round" stroke-linejoin="round"/>
</svg>
