<svg width="17" height="15" viewBox="0 0 17 15" fill="none" xmlns="http://www.w3.org/2000/svg">
<path d="M1.91303 0.463501H14.2268C14.476 0.463501 14.6851 0.547938 14.8539 0.716813C15.0228 0.885688 15.107 1.09444 15.1064 1.34306C15.1058 1.59168 15.0213 1.80072 14.8531 1.97018C14.6848 2.13964 14.476 2.22378 14.2268 2.22261H1.91303C1.66383 2.22261 1.45508 2.13817 1.28679 1.9693C1.1185 1.80043 1.03406 1.59168 1.03348 1.34306C1.03289 1.09444 1.11733 0.885688 1.28679 0.716813C1.45625 0.547938 1.665 0.463501 1.91303 0.463501ZM1.91303 14.5364C1.66383 14.5364 1.45508 14.452 1.28679 14.2831C1.1185 14.1142 1.03406 13.9055 1.03348 13.6568V9.25906H0.879556C0.60103 9.25906 0.373811 9.15263 0.1979 8.93978C0.0219889 8.72692 -0.0366482 8.48153 0.0219889 8.20359L0.901544 3.80581C0.945522 3.60058 1.04814 3.432 1.20939 3.30007C1.37064 3.16813 1.55388 3.10217 1.75911 3.10217H14.3807C14.586 3.10217 14.7692 3.16813 14.9305 3.30007C15.0917 3.432 15.1943 3.60058 15.2383 3.80581L16.1179 8.20359C16.1765 8.48212 16.1179 8.72751 15.9419 8.93978C15.766 9.15204 15.5388 9.25847 15.2603 9.25906H15.1064V13.6568C15.1064 13.906 15.0219 14.1151 14.8531 14.284C14.6842 14.4528 14.4754 14.537 14.2268 14.5364C13.9782 14.5358 13.7694 14.4514 13.6006 14.2831C13.4317 14.1148 13.3473 13.906 13.3473 13.6568V9.25906H9.82903V13.6568C9.82903 13.906 9.7446 14.1151 9.57572 14.284C9.40685 14.4528 9.1981 14.537 8.94948 14.5364H1.91303ZM2.79259 12.7773H8.06992V9.25906H2.79259V12.7773ZM1.95701 7.49994H14.1828L13.6551 4.86128H2.48474L1.95701 7.49994Z" fill="#D9D9D9"/>
</svg>
